<svg width="48" height="48" viewBox="0 0 48 48" fill="none" xmlns="http://www.w3.org/2000/svg">
<path fill-rule="evenodd" clip-rule="evenodd" d="M22.8302 4.79021C23.5925 4.55593 24.4075 4.55593 25.1698 4.79021L31.1412 6.62555C34.2565 7.58303 37.2151 8.99075 39.9232 10.8041C42.0295 12.2144 41.0311 15.4999 38.4962 15.4999H9.50381C6.96891 15.4999 5.97052 12.2144 8.07682 10.8041C10.7849 8.99076 13.7435 7.58303 16.8588 6.62555L22.8302 4.79021ZM24.2884 7.65782C24.1005 7.60006 23.8995 7.60006 23.7116 7.65782L17.7401 9.49316C15.3785 10.219 13.1158 11.2291 11.0014 12.4999H36.9986C34.8842 11.2291 32.6215 10.219 30.2599 9.49316L24.2884 7.65782Z" fill="#E0B973"/>
<path d="M8.5 41.9999C8.5 41.1715 9.17157 40.4999 10 40.4999H38C38.8284 40.4999 39.5 41.1715 39.5 41.9999C39.5 42.8284 38.8284 43.4999 38 43.4999H10C9.17157 43.4999 8.5 42.8284 8.5 41.9999Z" fill="#E0B973"/>
<path d="M12.5 33.9999C12.5 34.8284 13.1716 35.4999 14 35.4999C14.8284 35.4999 15.5 34.8284 15.5 33.9999L15.5 21.9999C15.5 21.1715 14.8284 20.4999 14 20.4999C13.1716 20.4999 12.5 21.1715 12.5 21.9999L12.5 33.9999Z" fill="#E0B973"/>
<path d="M24 35.4999C23.1716 35.4999 22.5 34.8284 22.5 33.9999L22.5 21.9999C22.5 21.1715 23.1716 20.4999 24 20.4999C24.8284 20.4999 25.5 21.1715 25.5 21.9999V33.9999C25.5 34.8284 24.8284 35.4999 24 35.4999Z" fill="#E0B973"/>
<path d="M32.5 33.9999C32.5 34.8284 33.1716 35.4999 34 35.4999C34.8284 35.4999 35.5 34.8284 35.5 33.9999V21.9999C35.5 21.1715 34.8284 20.4999 34 20.4999C33.1716 20.4999 32.5 21.1715 32.5 21.9999V33.9999Z" fill="#E0B973"/>
</svg>
