<svg width="48" height="48" viewBox="0 0 48 48" fill="none" xmlns="http://www.w3.org/2000/svg">
<path d="M6 22H42M40 34V23.3582C40 22.8511 40.0002 22.5977 39.9688 22.3484C39.9408 22.127 39.8941 21.9081 39.8297 21.6944C39.7571 21.4538 39.6539 21.2223 39.448 20.759L36.3555 13.8008C35.744 12.4251 35.4383 11.737 34.9551 11.2327C34.5279 10.7868 34.0041 10.446 33.4232 10.2367C32.766 10 32.0126 10 30.5071 10H17.4922C15.9867 10 15.2343 10 14.5771 10.2367C13.9963 10.446 13.4721 10.7868 13.0449 11.2327C12.5617 11.737 12.2557 12.4251 11.6443 13.8008L8.55176 20.759C8.34582 21.2223 8.24244 21.4538 8.16992 21.6944C8.10551 21.9081 8.05937 22.127 8.03144 22.3484C8 22.5977 8 22.8511 8 23.3582V34M40 34L8 34M40 34V36C40 38.2091 38.2091 40 36 40C33.7909 40 32 38.2091 32 36V34M8 34V36C8 38.2091 9.79086 40 12 40C14.2091 40 16 38.2091 16 36V34" stroke="#E0B973" stroke-width="2" stroke-linecap="round" stroke-linejoin="round"/>
</svg>
