<svg width="22" height="22" viewBox="0 0 22 22" fill="none" xmlns="http://www.w3.org/2000/svg">
<path d="M16.2543 12.9902C16.0194 13.2179 15.9114 13.5471 15.965 13.8701L16.7714 18.3331C16.8394 18.7114 16.6798 19.0942 16.3632 19.3128C16.0529 19.5396 15.6402 19.5668 15.3018 19.3854L11.2842 17.2899C11.1445 17.2156 10.9894 17.1757 10.8306 17.1711H10.5848C10.4995 17.1838 10.4161 17.211 10.3399 17.2528L6.3213 19.3582C6.12264 19.458 5.89767 19.4934 5.67724 19.458C5.14022 19.3564 4.78191 18.8448 4.8699 18.305L5.67724 13.842C5.73076 13.5163 5.62281 13.1852 5.38787 12.9539L2.11224 9.77895C1.83828 9.51316 1.74304 9.11402 1.86822 8.75389C1.98977 8.39467 2.30001 8.13251 2.67465 8.07355L7.18307 7.41951C7.52596 7.38413 7.82713 7.1755 7.98134 6.86707L9.96795 2.79408C10.0151 2.70336 10.0759 2.61991 10.1494 2.54915L10.231 2.48565C10.2736 2.43848 10.3226 2.39948 10.3771 2.36773L10.4759 2.33144L10.6301 2.26794H11.012C11.3531 2.30332 11.6534 2.50743 11.8103 2.81222L13.8232 6.86707C13.9684 7.1637 14.2505 7.36962 14.5761 7.41951L19.0846 8.07355C19.4656 8.12798 19.784 8.39104 19.91 8.75389C20.0289 9.11765 19.9264 9.51679 19.647 9.77895L16.2543 12.9902Z" fill="#DE8F32"/>
</svg>
