<svg width="48" height="48" viewBox="0 0 48 48" fill="none" xmlns="http://www.w3.org/2000/svg">
<path d="M16.6865 29.1801C17.6182 28.181 18.7447 27.3834 19.9966 26.8365C21.2484 26.2895 22.5986 26.0048 23.9647 26C25.3308 25.9953 26.6835 26.2705 27.9392 26.8087C29.1948 27.3468 30.3271 28.1365 31.2658 29.1291M12.2988 23.0881C13.7895 21.4895 15.5919 20.2134 17.5949 19.3383C19.5979 18.4632 21.7587 18.0078 23.9445 18.0001C26.1302 17.9925 28.2942 18.4328 30.3033 19.2939C32.3123 20.1549 34.124 21.4185 35.6258 23.0066M6.44727 17.6321C8.6833 15.2342 11.3869 13.32 14.3914 12.0073C17.3958 10.6947 20.6376 10.0116 23.9162 10.0001C27.1948 9.9887 30.4409 10.6492 33.4544 11.9408C36.4679 13.2324 39.1846 15.1278 41.4373 17.51M24 38C22.8954 38 22 37.1046 22 36C22 34.8955 22.8954 34 24 34C25.1046 34 26 34.8955 26 36C26 37.1046 25.1046 38 24 38Z" stroke="#E0B973" stroke-width="2" stroke-linecap="round" stroke-linejoin="round"/>
</svg>
